<?xml version="1.0" standalone="no"?>
<!DOCTYPE svg PUBLIC "-//W3C//DTD SVG 20010904//EN"
 "http://www.w3.org/TR/2001/REC-SVG-20010904/DTD/svg10.dtd">
<svg version="1.0" xmlns="http://www.w3.org/2000/svg"
 width="1200.000000pt" height="1200.000000pt" viewBox="0 0 1200.000000 1200.000000"
 preserveAspectRatio="xMidYMid meet">
<metadata>
Created by potrace 1.11, written by Peter Selinger 2001-2013
</metadata>
<g transform="translate(0.000000,1200.000000) scale(0.100000,-0.100000)"
fill="#000000" stroke="none">
<path d="M1190 8089 c-219 -26 -456 -117 -605 -232 -144 -110 -259 -284 -307
-462 -16 -63 -21 -111 -22 -225 -1 -154 8 -210 50 -312 13 -32 24 -61 24 -66
0 -5 -14 -15 -30 -22 -47 -19 -108 -96 -124 -154 -8 -28 -31 -222 -51 -430
-37 -371 -37 -381 -20 -434 21 -68 79 -133 143 -160 34 -14 82 -21 170 -26
123 -7 267 -28 310 -46 16 -7 22 -18 22 -43 0 -46 34 -177 59 -226 l21 -40
-35 -17 c-42 -20 -102 -84 -121 -131 -18 -42 -96 -810 -87 -856 9 -50 49 -122
84 -151 60 -51 87 -59 234 -68 79 -5 205 -22 289 -39 265 -53 426 -59 636 -23
206 36 465 159 575 274 16 16 32 30 36 30 4 0 17 -21 29 -46 31 -62 120 -157
188 -198 211 -127 547 -108 775 44 33 22 61 40 63 40 3 0 27 -18 54 -39 137
-108 340 -150 590 -122 340 39 624 164 873 384 37 33 69 58 70 56 2 -2 20 -40
42 -84 58 -117 179 -237 295 -293 141 -68 302 -88 470 -58 86 16 190 53 247
89 35 22 41 23 58 10 45 -35 166 -83 245 -99 175 -35 417 2 597 92 l91 45 50
-36 c255 -183 733 -142 1022 87 l54 44 64 -48 c247 -187 661 -248 1039 -153
107 27 235 85 333 150 l70 46 60 -64 c67 -72 157 -125 255 -151 189 -51 530
-15 655 69 43 29 49 30 66 17 32 -25 156 -79 214 -93 70 -18 313 -18 395 0
149 31 304 99 385 168 118 101 120 275 5 402 -44 48 -46 8 16 406 69 449 69
567 -1 711 -70 144 -204 245 -373 281 -86 18 -260 12 -351 -12 -32 -9 -60 -14
-63 -12 -2 3 14 104 36 225 23 121 41 242 41 269 -1 88 -61 182 -144 225 -67
34 -137 34 -251 -2 -213 -66 -384 -97 -607 -109 -133 -7 -148 -10 -198 -37
-62 -34 -104 -86 -125 -157 -19 -66 -19 -82 5 -160 14 -46 33 -80 65 -114 l44
-50 -15 -98 c-8 -55 -16 -100 -17 -102 -2 -1 -37 15 -78 36 -40 22 -107 49
-148 61 l-73 23 6 46 c8 60 -13 138 -50 193 -31 45 -102 96 -146 105 -16 3
-28 10 -28 16 0 15 79 586 86 618 4 20 16 31 49 43 49 19 119 89 143 144 10
23 16 67 16 117 1 95 -19 141 -87 201 l-45 39 9 50 c4 28 8 75 8 105 2 174
-182 306 -355 255 -49 -14 -71 -29 -148 -104 -101 -96 -149 -132 -246 -181
-103 -52 -183 -79 -288 -97 -123 -21 -125 -21 -198 11 -124 53 -277 56 -415 8
l-52 -18 -51 26 c-70 34 -148 34 -238 -3 -131 -53 -425 -107 -585 -107 -49 0
-54 3 -106 54 -94 94 -195 108 -319 44 -84 -42 -152 -42 -363 2 -139 30 -178
34 -300 34 -220 -1 -401 -42 -579 -131 -105 -52 -155 -86 -246 -163 l-66 -58
-38 74 c-71 138 -215 239 -386 270 -177 32 -402 -13 -555 -110 l-51 -33 -44
35 c-162 126 -409 153 -650 72 -70 -23 -88 -26 -100 -15 -31 26 -103 56 -148
61 -38 5 -72 -3 -182 -39 -76 -26 -190 -55 -259 -66 -141 -24 -351 -39 -351
-25 0 5 16 94 35 198 50 268 46 318 -28 402 -63 71 -101 86 -252 95 -71 5
-193 18 -270 29 -164 25 -375 33 -495 19z m605 -164 c94 -14 205 -25 247 -25
42 0 79 -3 81 -7 8 -14 -99 -577 -110 -580 -13 -5 -23 29 -23 77 -1 61 -29
162 -71 248 -77 160 -210 260 -376 284 -220 31 -361 -92 -340 -299 12 -116
108 -214 363 -372 212 -131 284 -183 360 -263 69 -71 105 -130 133 -210 23
-67 35 -172 27 -224 l-7 -39 -169 3 c-177 4 -312 -10 -445 -47 -57 -16 -66
-17 -77 -3 -7 8 -119 85 -248 170 -340 225 -452 343 -495 523 -45 192 20 414
164 557 206 205 530 273 986 207z m7577 -291 c-2 -16 -12 -92 -23 -169 -28
-203 -34 -185 61 -185 64 0 80 -3 80 -15 0 -12 -16 -15 -85 -15 -80 0 -85 -1
-90 -22 -14 -65 -145 -1043 -145 -1085 0 -60 19 -89 68 -102 41 -11 89 -3 140
23 52 27 50 11 -4 -39 -60 -55 -165 -111 -230 -124 -218 -41 -255 -45 -336
-33 -178 26 -261 119 -260 292 0 36 32 293 71 571 39 278 71 508 71 512 0 4
-22 7 -50 7 -36 0 -50 4 -50 14 0 9 18 15 54 20 203 23 474 157 638 315 40 39
78 69 83 67 6 -1 9 -16 7 -32z m-6362 -667 c-38 -186 -70 -345 -70 -354 0 -31
14 -2 47 99 136 415 346 618 640 618 116 0 175 -21 238 -83 91 -92 96 -182 26
-477 -36 -148 -41 -184 -26 -168 3 2 19 51 35 109 36 119 109 279 168 366 84
123 213 216 340 242 29 6 89 11 132 11 137 0 228 -48 276 -145 26 -54 27 -60
21 -173 -3 -64 -26 -250 -51 -412 -56 -364 -79 -547 -71 -577 3 -12 16 -30 29
-38 21 -14 29 -14 65 -1 23 7 44 10 46 5 7 -10 -25 -31 -97 -63 -105 -47 -174
-60 -313 -60 -115 -1 -136 2 -181 22 -60 27 -117 82 -137 132 -32 77 -30 122
28 540 56 411 65 526 43 548 -49 49 -148 -77 -238 -303 -125 -315 -184 -733
-125 -887 9 -23 -107 -49 -250 -55 -187 -9 -293 32 -348 134 -46 86 -45 132
13 548 59 425 69 537 50 560 -58 70 -198 -128 -289 -408 -91 -281 -128 -610
-86 -769 6 -25 4 -28 -32 -37 -54 -14 -165 -31 -173 -26 -3 2 6 73 22 157 42
218 30 289 -61 371 -58 52 -97 65 -221 73 -105 7 -110 8 -110 29 0 12 16 131
35 265 19 134 35 269 35 300 0 53 -3 61 -31 84 -20 17 -43 26 -64 26 -19 0
-36 4 -39 9 -9 14 32 21 119 21 166 0 438 47 600 103 46 16 71 20 73 13 1 -6
-29 -163 -68 -349z m3220 332 c245 -51 384 -48 501 11 l40 21 -6 -33 c-25
-146 -175 -1212 -175 -1248 0 -31 6 -52 15 -60 19 -15 66 -16 94 -1 13 7 22 8
26 1 9 -15 -76 -65 -156 -90 -65 -21 -77 -22 -148 -12 -42 7 -122 12 -179 12
-137 0 -176 21 -221 120 -25 55 -28 185 -6 275 17 72 17 75 6 75 -5 0 -21 -37
-36 -82 -94 -292 -256 -427 -511 -428 -220 0 -381 139 -431 373 -21 100 -13
323 16 430 76 287 268 501 541 604 192 72 394 82 630 32z m1537 9 c-12 -49
-147 -690 -147 -699 0 -5 4 -9 9 -9 5 0 12 17 16 38 14 75 78 259 121 347 84
172 203 296 317 330 158 47 316 -16 362 -144 18 -53 19 -91 1 -156 -28 -105
-89 -179 -184 -223 -72 -33 -189 -37 -270 -8 -62 21 -69 33 -48 74 23 45 30
105 16 133 -17 32 -29 39 -66 39 -43 0 -106 -69 -149 -164 -93 -200 -161 -561
-153 -806 l3 -105 -55 -27 c-102 -51 -184 -71 -264 -65 -100 8 -162 32 -212
83 -48 48 -74 117 -74 198 0 28 27 242 61 476 33 234 58 442 56 463 -7 49 -30
75 -76 83 -97 16 -71 34 49 34 175 0 424 41 580 94 119 41 113 40 107 14z
m-7193 -730 c16 -215 90 -392 218 -524 l50 -51 -22 -43 c-19 -37 -25 -41 -48
-36 -15 3 -89 11 -164 17 l-138 12 5 36 c7 49 65 633 65 654 0 9 6 17 14 17 9
0 15 -23 20 -82z m7299 -183 c100 -19 159 -19 253 1 42 8 77 14 79 12 4 -4
-22 -188 -27 -194 -3 -2 -26 3 -52 12 -57 20 -146 15 -197 -11 -19 -9 -69 -51
-113 -94 l-78 -76 6 85 c7 96 39 280 49 280 1 0 37 -7 80 -15z"/>
<path d="M5902 7275 c-99 -89 -178 -381 -204 -756 -20 -284 12 -440 91 -447
60 -6 106 58 165 225 41 120 79 291 102 465 19 144 22 395 5 454 -27 100 -89
123 -159 59z"/>
</g>
</svg>
